PathFileType	4	(X/Y/Z)
DataRate	CameraRate	NumFrames	NumMarkers	Units	OrigDataRate	OrigDataStartFrame	OrigNumFrames	
  100.0	  100.0	    4	     56	     mm	  100.0	      749	    855
Frame#	Time	LASI			RASI			LPSI			RPSI			RTH1			RTH2			RTH3			RLFC			RMFC			LTH1			LTH2			LTH3			LLFC			LMFC			RTB1			RTB2			RTB3			RLMAL			RMMAL			LTB1			LTB2			LTB3			LMMAL			LLMAL			RCAL			RTOE			RMT5			LCAL			LTOE			LMT5			LACR			RACR			CLAV			C7			LASH			LPSH			RASH			RPSH			RUA1			RUA2			RUA3			RLEL			RMEL			LUA1			LUA2			LUA3			LLEL			LMEL			RFAsuperior			RFAradius			RFAulna			LFAsuperior			LFAradius			LFAulna			RHJC			LHJC			
		X1	Y1	Z1	X2	Y2	Z2	X3	Y3	Z3	X4	Y4	Z4	X5	Y5	Z5	X6	Y6	Z6	X7	Y7	Z7	X8	Y8	Z8	X9	Y9	Z9	X10	Y10	Z10	X11	Y11	Z11	X12	Y12	Z12	X13	Y13	Z13	X14	Y14	Z14	X15	Y15	Z15	X16	Y16	Z16	X17	Y17	Z17	X18	Y18	Z18	X19	Y19	Z19	X20	Y20	Z20	X21	Y21	Z21	X22	Y22	Z22	X23	Y23	Z23	X24	Y24	Z24	X25	Y25	Z25	X26	Y26	Z26	X27	Y27	Z27	X28	Y28	Z28	X29	Y29	Z29	X30	Y30	Z30	X31	Y31	Z31	X32	Y32	Z32	X33	Y33	Z33	X34	Y34	Z34	X35	Y35	Z35	X36	Y36	Z36	X37	Y37	Z37	X38	Y38	Z38	X39	Y39	Z39	X40	Y40	Z40	X41	Y41	Z41	X42	Y42	Z42	X43	Y43	Z43	X44	Y44	Z44	X45	Y45	Z45	X46	Y46	Z46	X47	Y47	Z47	X48	Y48	Z48	X49	Y49	Z49	X50	Y50	Z50	X51	Y51	Z51	X52	Y52	Z52	X53	Y53	Z53	X54	Y54	Z54	X55	Y55	Z55	X56	Y56	Z56	

780	7.80000	902.09189	1083.02663	-464.88878	669.12262	1093.48703	-459.83728	829.14221	1114.95585	-628.98798	742.84681	1115.05108	-627.57173	603.84141	832.93033	-562.17870	624.89985	757.76557	-495.96238	618.10023	662.15436	-574.03913	617.37757	543.27270	-564.02262	729.36004	526.39199	-579.97064	953.09615	865.11908	-577.61613	955.52144	751.81002	-514.79553	946.23603	655.93994	-578.43433	943.61253	535.07809	-560.86812	835.05517	522.67017	-581.02850	653.36301	409.52330	-548.94746	612.85740	357.50468	-597.75461	662.09624	229.08291	-581.90139	652.59138	119.58833	-631.51799	729.47328	140.52111	-601.21529	917.18390	417.38373	-551.17694	931.14421	320.90368	-640.09787	888.36471	229.01398	-576.92974	809.33605	126.92831	-595.99484	891.12459	110.40334	-621.82987	721.00081	98.44849	-683.53126	676.23856	73.87476	-461.22305	610.94439	55.21238	-539.66641	831.65848	87.10192	-680.76751	853.60547	76.32231	-454.39576	920.32922	56.12247	-515.04979	908.85543	1625.70873	-560.22012	657.91434	1601.34179	-560.94809	761.43759	1532.55149	-457.28853	783.35427	1609.55017	-579.48769	928.33022	1581.45398	-501.59069	908.45438	1573.50481	-632.32368	635.43577	1562.08834	-509.53582	666.36357	1569.10144	-623.07415	544.15053	1550.08779	-638.25468	526.60999	1469.19113	-682.30311	460.87139	1481.52785	-711.87380	395.65738	1471.88564	-740.28240	402.77615	1405.35437	-685.63304	991.35495	1557.72211	-649.80057	1056.05451	1480.60704	-666.03287	1111.09527	1519.71665	-699.61277	1185.73281	1503.26365	-735.80780	1194.92521	1451.48557	-669.55014	327.34905	1440.14892	-770.62795	122.98379	1412.24435	-767.84218	148.83395	1384.78946	-819.67965	1265.61783	1462.57400	-770.77527	1446.00724	1484.57569	-780.16699	1420.55242	1448.68297	-827.59484	679.33677	991.72159	-541.49562	885.58052	980.20901	-542.10926	
781	7.81000	902.27111	1083.03481	-465.29730	669.33705	1093.42559	-460.05653	829.24293	1114.97831	-629.34242	742.96554	1115.04990	-627.82497	603.93210	832.91616	-562.28143	625.12522	757.78433	-496.07579	618.15594	662.15588	-574.16307	617.51616	543.22379	-564.07327	729.52109	526.39161	-579.97168	953.37357	865.11564	-577.92444	955.68395	751.85086	-514.96755	946.39277	655.93401	-578.55575	943.70345	535.09585	-560.85942	835.15877	522.70955	-581.02808	653.49695	409.51110	-548.93358	612.97339	357.49462	-597.77119	662.20878	229.11741	-581.75631	652.61265	119.57482	-631.49316	729.50816	140.50037	-601.23497	917.25822	417.36716	-551.18833	931.17556	320.89353	-640.09795	888.39100	229.02095	-576.93606	809.36283	126.92863	-596.01748	891.16157	110.39105	-621.83557	720.99878	98.40452	-683.49308	676.24985	73.90122	-461.23985	610.96236	55.20468	-539.63436	831.66342	87.07558	-680.76102	853.61640	76.35338	-454.52342	920.30707	56.14282	-515.09388	909.16206	1625.57820	-559.73267	657.68563	1601.12902	-560.32041	761.55287	1532.40155	-456.78533	783.51122	1609.45615	-578.88320	928.84959	1580.54260	-501.47205	908.27392	1573.43672	-632.09755	634.99375	1561.05521	-509.30760	666.02418	1568.89671	-622.55594	544.23886	1546.86142	-638.57890	529.24118	1465.48728	-682.83434	463.43348	1475.87960	-712.69152	398.87755	1464.33656	-741.66139	407.49778	1397.96227	-686.89863	990.72468	1555.76388	-650.14508	1053.04951	1476.94151	-667.27008	1108.66527	1514.44623	-701.17682	1181.65400	1495.69890	-738.07877	1191.05071	1444.21703	-671.57379	331.79827	1430.46157	-772.46582	128.36095	1396.52955	-771.66106	155.54258	1368.86837	-823.38621	1261.45209	1454.10597	-774.12742	1441.71131	1470.84123	-784.68714	1414.91352	1434.74995	-832.38156	679.51839	991.68832	-541.77832	885.76341	980.22455	-542.49500	
782	7.82000	902.43568	1083.04240	-465.69970	669.52779	1093.37288	-460.30167	829.33782	1115.00052	-629.70114	743.06543	1115.08782	-628.06211	604.02354	832.92854	-562.46425	625.35087	757.83529	-496.27070	618.28043	662.26202	-574.35502	617.65551	543.21043	-564.15148	729.68762	526.39969	-579.97938	953.59197	865.11618	-578.21596	955.84452	751.88400	-515.15326	946.52392	655.92245	-578.66224	943.78845	535.11066	-560.85709	835.22357	522.74987	-581.06197	653.63023	409.52437	-548.98329	613.14259	357.53051	-597.77209	662.30558	229.19340	-581.65314	652.62760	119.57468	-631.47570	729.53988	140.48070	-601.23702	917.32422	417.34774	-551.20186	931.17171	320.88035	-640.08093	888.41587	229.01931	-576.94536	809.31498	126.91303	-596.04719	891.17505	110.39051	-621.84729	720.99133	98.36356	-683.44486	676.25150	73.92815	-461.23407	610.94972	55.20324	-539.69376	831.65732	87.03978	-680.74168	853.62564	76.38356	-454.61219	920.29365	56.19319	-515.13275	909.52752	1625.42024	-559.30114	657.39792	1600.78070	-559.79128	761.64302	1532.21247	-456.27479	783.64301	1609.32298	-578.27136	929.36361	1579.63443	-501.34977	908.13009	1573.33619	-631.89745	634.56120	1559.86777	-509.22860	665.62708	1568.53938	-622.16738	544.30479	1543.40552	-638.94851	531.79495	1461.42357	-683.24995	466.08416	1469.89050	-713.48787	402.17410	1456.46459	-742.95296	412.15633	1390.53986	-687.79373	990.11531	1553.81602	-650.50590	1050.04393	1473.32933	-668.42399	1106.26302	1509.15189	-702.50128	1177.74310	1488.12955	-740.32376	1187.10164	1436.82804	-673.63034	336.41218	1420.55920	-774.12762	134.03507	1380.95623	-775.13636	162.56268	1353.03779	-826.76543	1256.83678	1445.15604	-776.80995	1437.15635	1456.90235	-788.94506	1409.01790	1420.58709	-836.97502	679.68133	991.66910	-542.08077	885.92767	980.24930	-542.89396	
783	7.83000	902.60345	1083.04209	-466.10074	669.70186	1093.29765	-460.56296	829.45588	1115.01832	-630.04262	743.17557	1115.13939	-628.29712	604.12834	832.97551	-562.71951	625.55526	757.89458	-496.51126	618.52275	662.41951	-574.61482	617.78598	543.24404	-564.21090	729.84395	526.40614	-579.99906	953.74923	865.10759	-578.49383	956.00058	751.89287	-515.37473	946.63253	655.89120	-578.77308	943.85564	535.10412	-560.88102	835.26604	522.77053	-581.12593	653.74070	409.54580	-549.06134	613.33654	357.62429	-597.72762	662.37700	229.28264	-581.61568	652.65187	119.57756	-631.48236	729.56917	140.45795	-601.22642	917.37651	417.31867	-551.22749	931.12729	320.84604	-640.06622	888.43621	228.98522	-576.97319	809.26781	126.87916	-596.07505	891.16593	110.38759	-621.86747	720.98328	98.33180	-683.41270	676.24753	73.95161	-461.22975	610.90488	55.20502	-539.85048	831.63798	86.99334	-680.71564	853.63267	76.41744	-454.62700	920.31257	56.24983	-515.17395	909.93497	1625.16360	-558.96578	657.05796	1600.37846	-559.33958	761.65364	1531.98492	-455.79455	783.69524	1609.15132	-577.68982	929.86657	1578.72514	-501.26239	907.97990	1573.11069	-631.76338	634.10623	1558.69315	-509.21855	665.18057	1568.12103	-621.89086	544.44019	1539.77214	-639.41163	534.45674	1457.12217	-683.49564	468.95667	1463.65790	-714.29114	405.65091	1448.28030	-744.14312	416.92413	1383.07970	-688.43277	989.43663	1551.75564	-650.89625	1047.06550	1469.66143	-669.27689	1103.84330	1503.88632	-703.64022	1174.11554	1480.67578	-742.35732	1183.09265	1429.45939	-675.49369	341.30744	1410.45190	-775.65212	140.10446	1365.42863	-778.20866	170.00206	1337.18305	-829.73552	1251.92227	1435.82258	-778.98202	1432.36796	1442.86011	-792.92845	1402.88640	1406.37925	-841.23348	679.85453	991.63903	-542.41487	886.10262	980.27411	-543.29515	
